<mxfile host="app.diagrams.net" agent="Mozilla/5.0 (Windows NT 10.0; Win64; x64) AppleWebKit/537.36 (KHTML, like Gecko) Chrome/127.0.0.0 Safari/537.36" version="24.7.7">
  <diagram id="Ht1M8jgEwFfnCIfOTk4-" name="Page-1">
    <mxGraphModel dx="1357" dy="806" grid="1" gridSize="10" guides="1" tooltips="1" connect="1" arrows="1" fold="1" page="1" pageScale="1" pageWidth="1169" pageHeight="827" math="0" shadow="0">
      <root>
        <mxCell id="0" />
        <mxCell id="1" parent="0" />
        <mxCell id="hU0i-UHhHBunBTIwxAAJ-133" value="&lt;font color=&quot;#ff9999&quot;&gt;Security Group - APP services&lt;/font&gt;" style="fillColor=none;strokeColor=#FF9999;dashed=1;verticalAlign=top;fontStyle=0;fontColor=#5A6C86;whiteSpace=wrap;html=1;align=left;" parent="1" vertex="1">
          <mxGeometry x="220" y="440" width="240" height="120" as="geometry" />
        </mxCell>
        <mxCell id="rxYb_VAJFptO9Ao5J3jT-10" value="Private subnet" style="points=[[0,0],[0.25,0],[0.5,0],[0.75,0],[1,0],[1,0.25],[1,0.5],[1,0.75],[1,1],[0.75,1],[0.5,1],[0.25,1],[0,1],[0,0.75],[0,0.5],[0,0.25]];outlineConnect=0;gradientColor=none;html=1;whiteSpace=wrap;fontSize=12;fontStyle=0;container=1;pointerEvents=0;collapsible=0;recursiveResize=0;shape=mxgraph.aws4.group;grIcon=mxgraph.aws4.group_security_group;grStroke=0;strokeColor=#00A4A6;fillColor=#E6F6F7;verticalAlign=top;align=left;spacingLeft=30;fontColor=#147EBA;dashed=0;direction=east;" vertex="1" parent="1">
          <mxGeometry x="710" y="242.98999999999995" width="124.75" height="130.5" as="geometry" />
        </mxCell>
        <mxCell id="hU0i-UHhHBunBTIwxAAJ-88" value="Availability Zone" style="fillColor=none;strokeColor=#147EBA;dashed=1;verticalAlign=top;fontStyle=0;fontColor=#147EBA;whiteSpace=wrap;html=1;align=left;" parent="1" vertex="1">
          <mxGeometry x="290" y="150" width="190" height="660" as="geometry" />
        </mxCell>
        <mxCell id="hU0i-UHhHBunBTIwxAAJ-99" value="DB Subnet" style="points=[[0,0],[0.25,0],[0.5,0],[0.75,0],[1,0],[1,0.25],[1,0.5],[1,0.75],[1,1],[0.75,1],[0.5,1],[0.25,1],[0,1],[0,0.75],[0,0.5],[0,0.25]];outlineConnect=0;gradientColor=none;html=1;whiteSpace=wrap;fontSize=12;fontStyle=0;container=1;pointerEvents=0;collapsible=0;recursiveResize=0;shape=mxgraph.aws4.group;grIcon=mxgraph.aws4.group_security_group;grStroke=0;strokeColor=#00A4A6;fillColor=#E6F6F7;verticalAlign=top;align=left;spacingLeft=30;fontColor=#147EBA;dashed=0;" parent="1" vertex="1">
          <mxGeometry x="519.18" y="624.5" width="130" height="130" as="geometry" />
        </mxCell>
        <mxCell id="hU0i-UHhHBunBTIwxAAJ-21" value="Web Subnet" style="points=[[0,0],[0.25,0],[0.5,0],[0.75,0],[1,0],[1,0.25],[1,0.5],[1,0.75],[1,1],[0.75,1],[0.5,1],[0.25,1],[0,1],[0,0.75],[0,0.5],[0,0.25]];outlineConnect=0;html=1;whiteSpace=wrap;fontSize=12;fontStyle=0;container=1;pointerEvents=0;collapsible=0;recursiveResize=0;shape=mxgraph.aws4.group;grIcon=mxgraph.aws4.group_security_group;grStroke=0;strokeColor=#10739e;fillColor=#b1ddf0;verticalAlign=top;align=left;spacingLeft=30;dashed=0;" parent="1" vertex="1">
          <mxGeometry x="300.19" y="405" width="169.81" height="170" as="geometry" />
        </mxCell>
        <mxCell id="hU0i-UHhHBunBTIwxAAJ-14" value="Web-server" style="text;strokeColor=none;align=center;fillColor=none;html=1;verticalAlign=middle;whiteSpace=wrap;rounded=0;" parent="hU0i-UHhHBunBTIwxAAJ-21" vertex="1">
          <mxGeometry x="54.709999999999965" y="111.23" width="60" height="20" as="geometry" />
        </mxCell>
        <mxCell id="UEzPUAAOIrF-is8g5C7q-74" value="AWS Cloud" style="points=[[0,0],[0.25,0],[0.5,0],[0.75,0],[1,0],[1,0.25],[1,0.5],[1,0.75],[1,1],[0.75,1],[0.5,1],[0.25,1],[0,1],[0,0.75],[0,0.5],[0,0.25]];outlineConnect=0;gradientColor=none;html=1;whiteSpace=wrap;fontSize=12;fontStyle=0;shape=mxgraph.aws4.group;grIcon=mxgraph.aws4.group_aws_cloud_alt;strokeColor=#232F3E;fillColor=none;verticalAlign=top;align=left;spacingLeft=30;fontColor=#232F3E;dashed=0;labelBackgroundColor=#ffffff;container=0;pointerEvents=0;collapsible=0;recursiveResize=0;" parent="1" vertex="1">
          <mxGeometry x="40" y="120" width="1040" height="700" as="geometry" />
        </mxCell>
        <mxCell id="hU0i-UHhHBunBTIwxAAJ-33" value="" style="edgeStyle=orthogonalEdgeStyle;rounded=0;orthogonalLoop=1;jettySize=auto;html=1;" parent="1" source="hU0i-UHhHBunBTIwxAAJ-27" target="wq3n0bG52reypuoghg2r-1" edge="1">
          <mxGeometry relative="1" as="geometry" />
        </mxCell>
        <mxCell id="hU0i-UHhHBunBTIwxAAJ-27" value="" style="sketch=0;outlineConnect=0;fontColor=#232F3E;gradientColor=none;fillColor=#232F3D;strokeColor=none;dashed=0;verticalLabelPosition=bottom;verticalAlign=top;align=center;html=1;fontSize=12;fontStyle=0;aspect=fixed;pointerEvents=1;shape=mxgraph.aws4.client;" parent="1" vertex="1">
          <mxGeometry x="42.5" y="9.210000000000058" width="78.5" height="76.49" as="geometry" />
        </mxCell>
        <mxCell id="hU0i-UHhHBunBTIwxAAJ-28" value="www.example.com" style="text;strokeColor=none;align=center;fillColor=none;html=1;verticalAlign=middle;whiteSpace=wrap;rounded=0;" parent="1" vertex="1">
          <mxGeometry x="20" y="80.18" width="121" height="30" as="geometry" />
        </mxCell>
        <mxCell id="hU0i-UHhHBunBTIwxAAJ-32" value="" style="sketch=0;points=[[0,0,0],[0.25,0,0],[0.5,0,0],[0.75,0,0],[1,0,0],[0,1,0],[0.25,1,0],[0.5,1,0],[0.75,1,0],[1,1,0],[0,0.25,0],[0,0.5,0],[0,0.75,0],[1,0.25,0],[1,0.5,0],[1,0.75,0]];outlineConnect=0;fontColor=#232F3E;fillColor=#8C4FFF;strokeColor=#ffffff;dashed=0;verticalLabelPosition=bottom;verticalAlign=top;align=center;html=1;fontSize=12;fontStyle=0;aspect=fixed;shape=mxgraph.aws4.resourceIcon;resIcon=mxgraph.aws4.route_53;" parent="1" vertex="1">
          <mxGeometry x="310" y="26.970000000000027" width="42.55" height="42.55" as="geometry" />
        </mxCell>
        <mxCell id="hU0i-UHhHBunBTIwxAAJ-34" value="Amazon Route 53&lt;div&gt;DNS Service&lt;/div&gt;" style="text;strokeColor=none;align=center;fillColor=none;html=1;verticalAlign=middle;whiteSpace=wrap;rounded=0;" parent="1" vertex="1">
          <mxGeometry x="280" y="70" width="100" height="30" as="geometry" />
        </mxCell>
        <mxCell id="rxYb_VAJFptO9Ao5J3jT-19" style="edgeStyle=orthogonalEdgeStyle;rounded=0;orthogonalLoop=1;jettySize=auto;html=1;" edge="1" parent="1" source="hU0i-UHhHBunBTIwxAAJ-50" target="rxYb_VAJFptO9Ao5J3jT-18">
          <mxGeometry relative="1" as="geometry" />
        </mxCell>
        <mxCell id="hU0i-UHhHBunBTIwxAAJ-50" value="" style="sketch=0;points=[[0,0,0],[0.25,0,0],[0.5,0,0],[0.75,0,0],[1,0,0],[0,1,0],[0.25,1,0],[0.5,1,0],[0.75,1,0],[1,1,0],[0,0.25,0],[0,0.5,0],[0,0.75,0],[1,0.25,0],[1,0.5,0],[1,0.75,0]];outlineConnect=0;fontColor=#232F3E;fillColor=#DD344C;strokeColor=#ffffff;dashed=0;verticalLabelPosition=bottom;verticalAlign=top;align=center;html=1;fontSize=12;fontStyle=0;aspect=fixed;shape=mxgraph.aws4.resourceIcon;resIcon=mxgraph.aws4.waf;" parent="1" vertex="1">
          <mxGeometry x="437.46" y="26.180000000000028" width="42.55" height="42.55" as="geometry" />
        </mxCell>
        <mxCell id="hU0i-UHhHBunBTIwxAAJ-52" value="AWS WAF Firewall" style="text;strokeColor=none;align=center;fillColor=none;html=1;verticalAlign=middle;whiteSpace=wrap;rounded=0;" parent="1" vertex="1">
          <mxGeometry x="428.73" y="71" width="60" height="29" as="geometry" />
        </mxCell>
        <mxCell id="hU0i-UHhHBunBTIwxAAJ-77" value="" style="sketch=0;points=[[0,0,0],[0.25,0,0],[0.5,0,0],[0.75,0,0],[1,0,0],[0,1,0],[0.25,1,0],[0.5,1,0],[0.75,1,0],[1,1,0],[0,0.25,0],[0,0.5,0],[0,0.75,0],[1,0.25,0],[1,0.5,0],[1,0.75,0]];outlineConnect=0;fontColor=#232F3E;fillColor=#7AA116;strokeColor=#ffffff;dashed=0;verticalLabelPosition=bottom;verticalAlign=top;align=center;html=1;fontSize=12;fontStyle=0;aspect=fixed;shape=mxgraph.aws4.resourceIcon;resIcon=mxgraph.aws4.s3;" parent="1" vertex="1">
          <mxGeometry x="562.9999999999999" y="663.8199999999999" width="42.36" height="42.36" as="geometry" />
        </mxCell>
        <mxCell id="hU0i-UHhHBunBTIwxAAJ-71" value="VPC" style="points=[[0,0],[0.25,0],[0.5,0],[0.75,0],[1,0],[1,0.25],[1,0.5],[1,0.75],[1,1],[0.75,1],[0.5,1],[0.25,1],[0,1],[0,0.75],[0,0.5],[0,0.25]];outlineConnect=0;gradientColor=none;html=1;whiteSpace=wrap;fontSize=12;fontStyle=0;container=0;pointerEvents=0;collapsible=0;recursiveResize=0;shape=mxgraph.aws4.group;grIcon=mxgraph.aws4.group_vpc2;strokeColor=#8C4FFF;fillColor=none;verticalAlign=top;align=left;spacingLeft=30;fontColor=#AAB7B8;dashed=0;" parent="1" vertex="1">
          <mxGeometry x="190" y="190" width="690" height="600" as="geometry" />
        </mxCell>
        <mxCell id="hU0i-UHhHBunBTIwxAAJ-38" value="Public subnet" style="points=[[0,0],[0.25,0],[0.5,0],[0.75,0],[1,0],[1,0.25],[1,0.5],[1,0.75],[1,1],[0.75,1],[0.5,1],[0.25,1],[0,1],[0,0.75],[0,0.5],[0,0.25]];outlineConnect=0;gradientColor=none;html=1;whiteSpace=wrap;fontSize=12;fontStyle=0;container=1;pointerEvents=0;collapsible=0;recursiveResize=0;shape=mxgraph.aws4.group;grIcon=mxgraph.aws4.group_security_group;grStroke=0;strokeColor=#7AA116;fillColor=#F2F6E8;verticalAlign=top;align=left;spacingLeft=30;fontColor=#248814;dashed=0;" parent="1" vertex="1">
          <mxGeometry x="300" y="226.48" width="169.81" height="163.52" as="geometry" />
        </mxCell>
        <mxCell id="hU0i-UHhHBunBTIwxAAJ-44" value="" style="sketch=0;outlineConnect=0;fontColor=#232F3E;gradientColor=none;fillColor=#8C4FFF;strokeColor=none;dashed=0;verticalLabelPosition=bottom;verticalAlign=top;align=center;html=1;fontSize=12;fontStyle=0;aspect=fixed;pointerEvents=1;shape=mxgraph.aws4.nat_gateway;" parent="hU0i-UHhHBunBTIwxAAJ-38" vertex="1">
          <mxGeometry x="62.45" y="53.519999999999996" width="44.9" height="44.9" as="geometry" />
        </mxCell>
        <mxCell id="hU0i-UHhHBunBTIwxAAJ-48" value="Nat gateway" style="text;strokeColor=none;align=center;fillColor=none;html=1;verticalAlign=middle;whiteSpace=wrap;rounded=0;" parent="hU0i-UHhHBunBTIwxAAJ-38" vertex="1">
          <mxGeometry x="44.900000000000006" y="103.52" width="80" height="30" as="geometry" />
        </mxCell>
        <mxCell id="hU0i-UHhHBunBTIwxAAJ-40" value="" style="sketch=0;points=[[0,0,0],[0.25,0,0],[0.5,0,0],[0.75,0,0],[1,0,0],[0,1,0],[0.25,1,0],[0.5,1,0],[0.75,1,0],[1,1,0],[0,0.25,0],[0,0.5,0],[0,0.75,0],[1,0.25,0],[1,0.5,0],[1,0.75,0]];outlineConnect=0;fontColor=#232F3E;fillColor=#8C4FFF;strokeColor=#ffffff;dashed=0;verticalLabelPosition=bottom;verticalAlign=top;align=center;html=1;fontSize=12;fontStyle=0;aspect=fixed;shape=mxgraph.aws4.resourceIcon;resIcon=mxgraph.aws4.elastic_load_balancing;" parent="1" vertex="1">
          <mxGeometry x="558.43" y="280" width="38.24" height="38.24" as="geometry" />
        </mxCell>
        <mxCell id="rxYb_VAJFptO9Ao5J3jT-15" style="edgeStyle=orthogonalEdgeStyle;rounded=0;orthogonalLoop=1;jettySize=auto;html=1;" edge="1" parent="1" source="hU0i-UHhHBunBTIwxAAJ-41" target="hU0i-UHhHBunBTIwxAAJ-145">
          <mxGeometry relative="1" as="geometry">
            <Array as="points">
              <mxPoint x="575" y="400" />
              <mxPoint x="919" y="400" />
            </Array>
          </mxGeometry>
        </mxCell>
        <mxCell id="hU0i-UHhHBunBTIwxAAJ-41" value="Elastic Load Balancer" style="text;strokeColor=none;align=center;fillColor=none;html=1;verticalAlign=middle;whiteSpace=wrap;rounded=0;" parent="1" vertex="1">
          <mxGeometry x="537.55" y="318.24" width="75" height="30" as="geometry" />
        </mxCell>
        <mxCell id="hU0i-UHhHBunBTIwxAAJ-91" value="S3 Static Storage" style="text;strokeColor=none;align=center;fillColor=none;html=1;verticalAlign=middle;whiteSpace=wrap;rounded=0;" parent="1" vertex="1">
          <mxGeometry x="554.1799999999998" y="706.18" width="60" height="30" as="geometry" />
        </mxCell>
        <mxCell id="hU0i-UHhHBunBTIwxAAJ-111" value="&lt;font color=&quot;#ea6b66&quot;&gt;Identity&lt;/font&gt;" style="fillColor=none;strokeColor=#EA6B66;dashed=1;verticalAlign=top;fontStyle=0;fontColor=#5A6C86;whiteSpace=wrap;html=1;align=right;" parent="1" vertex="1">
          <mxGeometry x="950" y="130" width="120" height="120" as="geometry" />
        </mxCell>
        <mxCell id="hU0i-UHhHBunBTIwxAAJ-112" value="" style="sketch=0;points=[[0,0,0],[0.25,0,0],[0.5,0,0],[0.75,0,0],[1,0,0],[0,1,0],[0.25,1,0],[0.5,1,0],[0.75,1,0],[1,1,0],[0,0.25,0],[0,0.5,0],[0,0.75,0],[1,0.25,0],[1,0.5,0],[1,0.75,0]];outlineConnect=0;fontColor=#232F3E;fillColor=#DD344C;strokeColor=#ffffff;dashed=0;verticalLabelPosition=bottom;verticalAlign=top;align=center;html=1;fontSize=12;fontStyle=0;aspect=fixed;shape=mxgraph.aws4.resourceIcon;resIcon=mxgraph.aws4.identity_and_access_management;" parent="1" vertex="1">
          <mxGeometry x="986" y="171" width="48" height="48" as="geometry" />
        </mxCell>
        <mxCell id="hU0i-UHhHBunBTIwxAAJ-114" value="AWS IAM" style="text;strokeColor=none;align=center;fillColor=none;html=1;verticalAlign=middle;whiteSpace=wrap;rounded=0;" parent="1" vertex="1">
          <mxGeometry x="980" y="220" width="60" height="30" as="geometry" />
        </mxCell>
        <mxCell id="hU0i-UHhHBunBTIwxAAJ-120" value="&lt;font color=&quot;#b5739d&quot;&gt;Logging and monitoring&lt;/font&gt;" style="fillColor=none;strokeColor=#B5739D;dashed=1;verticalAlign=top;fontStyle=0;fontColor=#5A6C86;whiteSpace=wrap;html=1;align=right;" parent="1" vertex="1">
          <mxGeometry x="950" y="260" width="120" height="120" as="geometry" />
        </mxCell>
        <mxCell id="hU0i-UHhHBunBTIwxAAJ-121" value="" style="sketch=0;points=[[0,0,0],[0.25,0,0],[0.5,0,0],[0.75,0,0],[1,0,0],[0,1,0],[0.25,1,0],[0.5,1,0],[0.75,1,0],[1,1,0],[0,0.25,0],[0,0.5,0],[0,0.75,0],[1,0.25,0],[1,0.5,0],[1,0.75,0]];points=[[0,0,0],[0.25,0,0],[0.5,0,0],[0.75,0,0],[1,0,0],[0,1,0],[0.25,1,0],[0.5,1,0],[0.75,1,0],[1,1,0],[0,0.25,0],[0,0.5,0],[0,0.75,0],[1,0.25,0],[1,0.5,0],[1,0.75,0]];outlineConnect=0;fontColor=#232F3E;fillColor=#E7157B;strokeColor=#ffffff;dashed=0;verticalLabelPosition=bottom;verticalAlign=top;align=center;html=1;fontSize=12;fontStyle=0;aspect=fixed;shape=mxgraph.aws4.resourceIcon;resIcon=mxgraph.aws4.cloudtrail;" parent="1" vertex="1">
          <mxGeometry x="986" y="298.24" width="50" height="50" as="geometry" />
        </mxCell>
        <mxCell id="hU0i-UHhHBunBTIwxAAJ-122" value="AWS Cloudtrail" style="text;strokeColor=none;align=center;fillColor=none;html=1;verticalAlign=middle;whiteSpace=wrap;rounded=0;" parent="1" vertex="1">
          <mxGeometry x="980" y="350" width="60" height="30" as="geometry" />
        </mxCell>
        <mxCell id="hU0i-UHhHBunBTIwxAAJ-128" style="edgeStyle=orthogonalEdgeStyle;rounded=0;orthogonalLoop=1;jettySize=auto;html=1;entryX=0;entryY=0.5;entryDx=0;entryDy=0;entryPerimeter=0;" parent="1" source="hU0i-UHhHBunBTIwxAAJ-32" target="hU0i-UHhHBunBTIwxAAJ-50" edge="1">
          <mxGeometry relative="1" as="geometry" />
        </mxCell>
        <mxCell id="rxYb_VAJFptO9Ao5J3jT-8" style="edgeStyle=orthogonalEdgeStyle;rounded=0;orthogonalLoop=1;jettySize=auto;html=1;" edge="1" parent="1" source="hU0i-UHhHBunBTIwxAAJ-13" target="hU0i-UHhHBunBTIwxAAJ-77">
          <mxGeometry relative="1" as="geometry">
            <Array as="points">
              <mxPoint x="584" y="500" />
            </Array>
          </mxGeometry>
        </mxCell>
        <mxCell id="hU0i-UHhHBunBTIwxAAJ-13" value="" style="sketch=0;points=[[0,0,0],[0.25,0,0],[0.5,0,0],[0.75,0,0],[1,0,0],[0,1,0],[0.25,1,0],[0.5,1,0],[0.75,1,0],[1,1,0],[0,0.25,0],[0,0.5,0],[0,0.75,0],[1,0.25,0],[1,0.5,0],[1,0.75,0]];outlineConnect=0;fontColor=#232F3E;fillColor=#ED7100;strokeColor=#ffffff;dashed=0;verticalLabelPosition=bottom;verticalAlign=top;align=center;html=1;fontSize=12;fontStyle=0;aspect=fixed;shape=mxgraph.aws4.resourceIcon;resIcon=mxgraph.aws4.ec2;" parent="1" vertex="1">
          <mxGeometry x="362.43999999999994" y="467.54" width="44.93" height="44.93" as="geometry" />
        </mxCell>
        <mxCell id="hU0i-UHhHBunBTIwxAAJ-138" value="" style="edgeStyle=orthogonalEdgeStyle;htmDepartman barl=1;endArrow=open;elbow=vertical;startArrow=open;startFill=0;endFill=0;strokeColor=#FF9999;rounded=0;entryX=0.223;entryY=0.999;entryDx=0;entryDy=0;entryPerimeter=0;exitX=0.223;exitY=0.007;exitDx=0;exitDy=0;exitPerimeter=0;" parent="1" source="hU0i-UHhHBunBTIwxAAJ-133" target="hU0i-UHhHBunBTIwxAAJ-130" edge="1">
          <mxGeometry width="100" relative="1" as="geometry">
            <mxPoint x="276" y="430" as="sourcePoint" />
            <mxPoint x="845" y="630" as="targetPoint" />
            <Array as="points">
              <mxPoint x="273" y="430" />
              <mxPoint x="273" y="430" />
            </Array>
          </mxGeometry>
        </mxCell>
        <mxCell id="hU0i-UHhHBunBTIwxAAJ-139" value="" style="edgeStyle=orthogonalEdgeStyle;htmDepartman barl=1;endArrow=open;elbow=vertical;startArrow=open;startFill=0;endFill=0;strokeColor=#FF9999;rounded=0;exitX=0.204;exitY=0.013;exitDx=0;exitDy=0;exitPerimeter=0;" parent="1" edge="1" source="a1KneXqHBwTecMQkUpZx-6">
          <mxGeometry width="100" relative="1" as="geometry">
            <mxPoint x="270" y="620" as="sourcePoint" />
            <mxPoint x="270" y="565" as="targetPoint" />
            <Array as="points">
              <mxPoint x="270" y="600" />
            </Array>
          </mxGeometry>
        </mxCell>
        <mxCell id="hU0i-UHhHBunBTIwxAAJ-145" value="" style="sketch=0;points=[[0,0,0],[0.25,0,0],[0.5,0,0],[0.75,0,0],[1,0,0],[0,1,0],[0.25,1,0],[0.5,1,0],[0.75,1,0],[1,1,0],[0,0.25,0],[0,0.5,0],[0,0.75,0],[1,0.25,0],[1,0.5,0],[1,0.75,0]];points=[[0,0,0],[0.25,0,0],[0.5,0,0],[0.75,0,0],[1,0,0],[0,1,0],[0.25,1,0],[0.5,1,0],[0.75,1,0],[1,1,0],[0,0.25,0],[0,0.5,0],[0,0.75,0],[1,0.25,0],[1,0.5,0],[1,0.75,0]];outlineConnect=0;fontColor=#232F3E;fillColor=#E7157B;strokeColor=#ffffff;dashed=0;verticalLabelPosition=bottom;verticalAlign=top;align=center;html=1;fontSize=12;fontStyle=0;aspect=fixed;shape=mxgraph.aws4.resourceIcon;resIcon=mxgraph.aws4.cloudwatch_2;" parent="1" vertex="1">
          <mxGeometry x="898.15" y="468.77000000000004" width="42.46" height="42.46" as="geometry" />
        </mxCell>
        <mxCell id="hU0i-UHhHBunBTIwxAAJ-146" value="Amazon CloudWatch" style="text;strokeColor=none;align=center;fillColor=none;html=1;verticalAlign=middle;whiteSpace=wrap;rounded=0;" parent="1" vertex="1">
          <mxGeometry x="880" y="511.23" width="78.77" height="30" as="geometry" />
        </mxCell>
        <mxCell id="hU0i-UHhHBunBTIwxAAJ-150" style="edgeStyle=orthogonalEdgeStyle;rounded=0;orthogonalLoop=1;jettySize=auto;html=1;entryX=0;entryY=0.5;entryDx=0;entryDy=0;entryPerimeter=0;" parent="1" source="hU0i-UHhHBunBTIwxAAJ-13" target="hU0i-UHhHBunBTIwxAAJ-145" edge="1">
          <mxGeometry relative="1" as="geometry" />
        </mxCell>
        <mxCell id="hU0i-UHhHBunBTIwxAAJ-153" value="" style="sketch=0;points=[[0,0,0],[0.25,0,0],[0.5,0,0],[0.75,0,0],[1,0,0],[0,1,0],[0.25,1,0],[0.5,1,0],[0.75,1,0],[1,1,0],[0,0.25,0],[0,0.5,0],[0,0.75,0],[1,0.25,0],[1,0.5,0],[1,0.75,0]];outlineConnect=0;fontColor=#232F3E;fillColor=#E7157B;strokeColor=#ffffff;dashed=0;verticalLabelPosition=bottom;verticalAlign=top;align=center;html=1;fontSize=12;fontStyle=0;aspect=fixed;shape=mxgraph.aws4.resourceIcon;resIcon=mxgraph.aws4.sns;" parent="1" vertex="1">
          <mxGeometry x="999" y="470.23" width="41" height="41" as="geometry" />
        </mxCell>
        <mxCell id="hU0i-UHhHBunBTIwxAAJ-154" style="edgeStyle=orthogonalEdgeStyle;rounded=0;orthogonalLoop=1;jettySize=auto;html=1;entryX=0;entryY=0.5;entryDx=0;entryDy=0;entryPerimeter=0;" parent="1" source="hU0i-UHhHBunBTIwxAAJ-145" target="hU0i-UHhHBunBTIwxAAJ-153" edge="1">
          <mxGeometry relative="1" as="geometry" />
        </mxCell>
        <mxCell id="hU0i-UHhHBunBTIwxAAJ-155" value="Amazon SNS" style="text;strokeColor=none;align=center;fillColor=none;html=1;verticalAlign=middle;whiteSpace=wrap;rounded=0;" parent="1" vertex="1">
          <mxGeometry x="989.5" y="511.23" width="60" height="30" as="geometry" />
        </mxCell>
        <mxCell id="wq3n0bG52reypuoghg2r-1" value="" style="sketch=0;outlineConnect=0;fontColor=#232F3E;gradientColor=none;fillColor=#232F3D;strokeColor=none;dashed=0;verticalLabelPosition=bottom;verticalAlign=top;align=center;html=1;fontSize=12;fontStyle=0;aspect=fixed;pointerEvents=1;shape=mxgraph.aws4.shield2;" parent="1" vertex="1">
          <mxGeometry x="177.7" y="21.310000000000002" width="52.3" height="52.3" as="geometry" />
        </mxCell>
        <mxCell id="wq3n0bG52reypuoghg2r-2" style="edgeStyle=orthogonalEdgeStyle;rounded=0;orthogonalLoop=1;jettySize=auto;html=1;entryX=0;entryY=0.5;entryDx=0;entryDy=0;entryPerimeter=0;" parent="1" source="wq3n0bG52reypuoghg2r-1" target="hU0i-UHhHBunBTIwxAAJ-32" edge="1">
          <mxGeometry relative="1" as="geometry" />
        </mxCell>
        <mxCell id="wq3n0bG52reypuoghg2r-3" value="Imperva" style="text;strokeColor=none;align=center;fillColor=none;html=1;verticalAlign=middle;whiteSpace=wrap;rounded=0;" parent="1" vertex="1">
          <mxGeometry x="173.85000000000002" y="67.44999999999999" width="60" height="30" as="geometry" />
        </mxCell>
        <mxCell id="a1KneXqHBwTecMQkUpZx-5" value="DB Subnet" style="points=[[0,0],[0.25,0],[0.5,0],[0.75,0],[1,0],[1,0.25],[1,0.5],[1,0.75],[1,1],[0.75,1],[0.5,1],[0.25,1],[0,1],[0,0.75],[0,0.5],[0,0.25]];outlineConnect=0;gradientColor=none;html=1;whiteSpace=wrap;fontSize=12;fontStyle=0;container=1;pointerEvents=0;collapsible=0;recursiveResize=0;shape=mxgraph.aws4.group;grIcon=mxgraph.aws4.group_security_group;grStroke=0;strokeColor=#00A4A6;fillColor=#E6F6F7;verticalAlign=top;align=left;spacingLeft=30;fontColor=#147EBA;dashed=0;" parent="1" vertex="1">
          <mxGeometry x="300" y="590" width="170" height="170" as="geometry" />
        </mxCell>
        <mxCell id="a1KneXqHBwTecMQkUpZx-7" value="" style="sketch=0;points=[[0,0,0],[0.25,0,0],[0.5,0,0],[0.75,0,0],[1,0,0],[0,1,0],[0.25,1,0],[0.5,1,0],[0.75,1,0],[1,1,0],[0,0.25,0],[0,0.5,0],[0,0.75,0],[1,0.25,0],[1,0.5,0],[1,0.75,0]];outlineConnect=0;fontColor=#232F3E;fillColor=#C925D1;strokeColor=#ffffff;dashed=0;verticalLabelPosition=bottom;verticalAlign=top;align=center;html=1;fontSize=12;fontStyle=0;aspect=fixed;shape=mxgraph.aws4.resourceIcon;resIcon=mxgraph.aws4.rds;" parent="a1KneXqHBwTecMQkUpZx-5" vertex="1">
          <mxGeometry x="65.75" y="71.5" width="38.5" height="38.5" as="geometry" />
        </mxCell>
        <mxCell id="a1KneXqHBwTecMQkUpZx-8" value="Amazon RDS Database" style="text;strokeColor=none;align=center;fillColor=none;html=1;verticalAlign=middle;whiteSpace=wrap;rounded=0;" parent="a1KneXqHBwTecMQkUpZx-5" vertex="1">
          <mxGeometry x="35.00000000000004" y="110" width="100" height="40" as="geometry" />
        </mxCell>
        <mxCell id="a1KneXqHBwTecMQkUpZx-12" value="" style="edgeStyle=orthogonalEdgeStyle;rounded=0;orthogonalLoop=1;jettySize=auto;html=1;" parent="1" source="hU0i-UHhHBunBTIwxAAJ-14" target="a1KneXqHBwTecMQkUpZx-7" edge="1">
          <mxGeometry relative="1" as="geometry" />
        </mxCell>
        <mxCell id="rxYb_VAJFptO9Ao5J3jT-2" value="" style="sketch=0;points=[[0,0,0],[0.25,0,0],[0.5,0,0],[0.75,0,0],[1,0,0],[0,1,0],[0.25,1,0],[0.5,1,0],[0.75,1,0],[1,1,0],[0,0.25,0],[0,0.5,0],[0,0.75,0],[1,0.25,0],[1,0.5,0],[1,0.75,0]];outlineConnect=0;fontColor=#232F3E;fillColor=#ED7100;strokeColor=#ffffff;dashed=0;verticalLabelPosition=bottom;verticalAlign=top;align=center;html=1;fontSize=12;fontStyle=0;aspect=fixed;shape=mxgraph.aws4.resourceIcon;resIcon=mxgraph.aws4.ec2;" vertex="1" parent="1">
          <mxGeometry x="752.12" y="287.99" width="40.5" height="40.5" as="geometry" />
        </mxCell>
        <mxCell id="hU0i-UHhHBunBTIwxAAJ-130" value="&lt;font color=&quot;#ff9999&quot;&gt;Security Group - Load Balancer&lt;/font&gt;" style="fillColor=none;strokeColor=#FF9999;dashed=1;verticalAlign=top;fontStyle=0;fontColor=#5A6C86;whiteSpace=wrap;html=1;align=left;" parent="1" vertex="1">
          <mxGeometry x="220" y="260" width="239.81" height="120" as="geometry" />
        </mxCell>
        <mxCell id="rxYb_VAJFptO9Ao5J3jT-7" style="edgeStyle=orthogonalEdgeStyle;rounded=0;orthogonalLoop=1;jettySize=auto;html=1;entryX=1;entryY=0.25;entryDx=0;entryDy=0;entryPerimeter=0;" edge="1" parent="1" source="hU0i-UHhHBunBTIwxAAJ-40" target="hU0i-UHhHBunBTIwxAAJ-13">
          <mxGeometry relative="1" as="geometry">
            <Array as="points">
              <mxPoint x="440" y="299" />
              <mxPoint x="440" y="479" />
            </Array>
          </mxGeometry>
        </mxCell>
        <mxCell id="a1KneXqHBwTecMQkUpZx-6" value="&lt;font color=&quot;#ff9999&quot;&gt;Security Group - DB Services&lt;/font&gt;" style="fillColor=none;strokeColor=#FF9999;dashed=1;verticalAlign=top;fontStyle=0;fontColor=#5A6C86;whiteSpace=wrap;html=1;align=left;" parent="1" vertex="1">
          <mxGeometry x="220" y="629.5" width="240" height="120" as="geometry" />
        </mxCell>
        <mxCell id="rxYb_VAJFptO9Ao5J3jT-11" value="ELK stack instance" style="text;strokeColor=none;align=center;fillColor=none;html=1;verticalAlign=middle;whiteSpace=wrap;rounded=0;" vertex="1" parent="1">
          <mxGeometry x="742.37" y="328.49000000000007" width="60" height="30" as="geometry" />
        </mxCell>
        <mxCell id="rxYb_VAJFptO9Ao5J3jT-20" style="edgeStyle=orthogonalEdgeStyle;rounded=0;orthogonalLoop=1;jettySize=auto;html=1;" edge="1" parent="1" source="rxYb_VAJFptO9Ao5J3jT-18" target="hU0i-UHhHBunBTIwxAAJ-40">
          <mxGeometry relative="1" as="geometry" />
        </mxCell>
        <mxCell id="rxYb_VAJFptO9Ao5J3jT-18" value="" style="sketch=0;outlineConnect=0;fontColor=#232F3E;gradientColor=none;fillColor=#232F3D;strokeColor=none;dashed=0;verticalLabelPosition=bottom;verticalAlign=top;align=center;html=1;fontSize=12;fontStyle=0;aspect=fixed;pointerEvents=1;shape=mxgraph.aws4.internet_alt2;" vertex="1" parent="1">
          <mxGeometry x="547.64" y="90.18" width="59.82" height="59.82" as="geometry" />
        </mxCell>
        <mxCell id="rxYb_VAJFptO9Ao5J3jT-21" value="" style="sketch=0;outlineConnect=0;fontColor=#232F3E;gradientColor=none;fillColor=#232F3D;strokeColor=none;dashed=0;verticalLabelPosition=bottom;verticalAlign=top;align=center;html=1;fontSize=12;fontStyle=0;aspect=fixed;pointerEvents=1;shape=mxgraph.aws4.metrics;" vertex="1" parent="1">
          <mxGeometry x="750" y="30.18" width="42.61" height="38.78" as="geometry" />
        </mxCell>
        <mxCell id="rxYb_VAJFptO9Ao5J3jT-22" value="ELK stack" style="text;strokeColor=none;align=center;fillColor=none;html=1;verticalAlign=middle;whiteSpace=wrap;rounded=0;" vertex="1" parent="1">
          <mxGeometry x="742.38" y="67.45" width="60" height="30" as="geometry" />
        </mxCell>
        <mxCell id="rxYb_VAJFptO9Ao5J3jT-26" value="" style="edgeStyle=orthogonalEdgeStyle;html=1;endArrow=block;elbow=vertical;startArrow=block;startFill=1;endFill=1;strokeColor=#545B64;rounded=0;exitX=0.5;exitY=1;exitDx=0;exitDy=0;entryX=0.5;entryY=0;entryDx=0;entryDy=0;entryPerimeter=0;" edge="1" parent="1" source="rxYb_VAJFptO9Ao5J3jT-22" target="rxYb_VAJFptO9Ao5J3jT-2">
          <mxGeometry width="100" relative="1" as="geometry">
            <mxPoint x="730" y="160" as="sourcePoint" />
            <mxPoint x="830" y="160" as="targetPoint" />
          </mxGeometry>
        </mxCell>
        <mxCell id="rxYb_VAJFptO9Ao5J3jT-30" value="" style="edgeStyle=orthogonalEdgeStyle;html=1;endArrow=block;elbow=vertical;startArrow=block;startFill=1;endFill=1;strokeColor=#545B64;rounded=0;exitX=1;exitY=0.25;exitDx=0;exitDy=0;exitPerimeter=0;entryX=0;entryY=0.5;entryDx=0;entryDy=0;" edge="1" parent="1" source="hU0i-UHhHBunBTIwxAAJ-13" target="rxYb_VAJFptO9Ao5J3jT-22">
          <mxGeometry width="100" relative="1" as="geometry">
            <mxPoint x="520" y="450" as="sourcePoint" />
            <mxPoint x="660" y="40" as="targetPoint" />
            <Array as="points">
              <mxPoint x="660" y="479" />
              <mxPoint x="660" y="83" />
            </Array>
          </mxGeometry>
        </mxCell>
      </root>
    </mxGraphModel>
  </diagram>
</mxfile>
